<svg width="316" height="444" viewBox="0 0 316 444" fill="none" xmlns="http://www.w3.org/2000/svg">
<rect width="315" height="444" transform="translate(0.771729)" fill="white"/>
<path d="M38.0117 385.32C38.0117 385.589 37.9601 385.765 37.8567 385.847C37.774 385.93 37.5776 385.971 37.2675 385.971H34.0115C33.7428 385.971 33.5567 385.93 33.4533 385.847C33.35 385.744 33.2983 385.568 33.2983 385.32V376.638H24.8947V385.32C24.8947 385.589 24.843 385.765 24.7397 385.847C24.657 385.93 24.4606 385.971 24.1505 385.971H20.8635C20.6154 385.971 20.4293 385.93 20.3053 385.847C20.2019 385.744 20.1503 385.568 20.1503 385.32V364.916C20.1503 364.668 20.2019 364.503 20.3053 364.42C20.4293 364.316 20.6154 364.265 20.8635 364.265H24.1505C24.4606 364.265 24.657 364.306 24.7397 364.389C24.843 364.471 24.8947 364.647 24.8947 364.916V372.637H33.2983V364.916C33.2983 364.668 33.35 364.503 33.4533 364.42C33.5567 364.316 33.7428 364.265 34.0115 364.265H37.2675C37.5776 364.265 37.774 364.306 37.8567 364.389C37.9601 364.471 38.0117 364.647 38.0117 364.916V385.32ZM53.9998 381.444H46.8986L45.6893 385.382C45.6272 385.589 45.5342 385.744 45.4102 385.847C45.3068 385.93 45.1104 385.971 44.821 385.971H41.1929C40.9655 385.971 40.8208 385.909 40.7587 385.785C40.7174 385.661 40.7174 385.517 40.7587 385.351L47.2087 365.908C47.3121 365.557 47.4258 365.278 47.5498 365.071C47.6945 364.844 47.8496 364.668 48.015 364.544C48.201 364.42 48.4078 364.337 48.6352 364.296C48.8832 364.234 49.1623 364.203 49.4724 364.203H51.333C51.6844 364.203 51.9842 364.223 52.2323 364.265C52.4804 364.285 52.6974 364.358 52.8835 364.482C53.0695 364.606 53.2246 364.782 53.3486 365.009C53.4933 365.236 53.6277 365.536 53.7517 365.908L60.2017 385.351C60.2431 385.475 60.2431 385.61 60.2017 385.754C60.1604 385.899 60.026 385.971 59.7986 385.971H56.1085C55.8811 385.971 55.6847 385.951 55.5193 385.909C55.3746 385.847 55.2712 385.703 55.2092 385.475L53.9998 381.444ZM48.015 377.599H52.8835L51.7051 373.661L50.5578 369.226H50.3717L49.1933 373.661L48.015 377.599ZM52.8215 360.854C52.9868 360.998 53.0592 361.112 53.0385 361.195C53.0385 361.278 52.9868 361.381 52.8835 361.505L51.7051 362.931C51.6017 363.035 51.4984 363.107 51.395 363.148C51.3123 363.169 51.1676 363.128 50.9609 363.024L44.976 359.954C44.852 359.913 44.7797 359.841 44.759 359.737C44.7383 359.613 44.79 359.489 44.914 359.365L47.0537 356.916C47.2191 356.75 47.3534 356.688 47.4568 356.729C47.5602 356.771 47.6739 356.843 47.7979 356.947L52.8215 360.854ZM67.6525 372.482V385.32C67.6525 385.589 67.6008 385.765 67.4974 385.847C67.4147 385.93 67.2287 385.971 66.9393 385.971H63.6833C63.4352 385.971 63.2491 385.93 63.1251 385.847C63.0217 385.744 62.97 385.568 62.97 385.32V366.404C62.97 365.598 63.1148 365.04 63.4042 364.73C63.6936 364.399 64.2208 364.234 64.9857 364.234H66.2881C66.5982 364.234 66.8566 364.254 67.0633 364.296C67.2907 364.316 67.4871 364.378 67.6525 364.482C67.8179 364.585 67.9729 364.73 68.1176 364.916C68.2623 365.102 68.4277 365.34 68.6138 365.629L73.8854 373.661L76.5522 377.847H76.7073V364.885C76.7073 364.637 76.7486 364.471 76.8313 364.389C76.9347 364.285 77.1311 364.234 77.4205 364.234H80.6765C81.152 364.234 81.3897 364.451 81.3897 364.885V383.832C81.3897 384.493 81.2553 385.02 80.9866 385.413C80.7178 385.785 80.1803 385.971 79.3741 385.971H78.0717C77.7616 385.971 77.4928 385.961 77.2654 385.94C77.0587 385.899 76.8727 385.827 76.7073 385.723C76.5419 385.62 76.3868 385.486 76.2421 385.32C76.0974 385.134 75.932 384.896 75.746 384.607L70.7844 377.103L67.8075 372.482H67.6525ZM95.6274 382.064C96.0202 382.064 96.5164 382.044 97.1159 382.002C97.7154 381.94 98.2943 381.806 98.8524 381.599L98.8834 377.01C98.1599 376.968 97.4363 377.01 96.7128 377.134C95.9892 377.258 95.2863 377.464 94.6041 377.754C94.3147 377.857 94.108 377.909 93.9839 377.909C93.8806 377.909 93.7772 377.795 93.6738 377.568L92.8676 375.056C92.8056 374.891 92.7849 374.746 92.8056 374.622C92.8262 374.498 92.9503 374.384 93.1777 374.281C93.9012 373.929 94.7488 373.64 95.7205 373.413C96.7128 373.165 97.7051 373.04 98.6974 373.04C99.2349 373.04 99.731 373.061 100.186 373.102C100.641 373.123 101.044 373.175 101.395 373.258C101.85 373.361 102.212 373.516 102.481 373.723C102.749 373.909 102.956 374.157 103.101 374.467C103.245 374.756 103.338 375.097 103.38 375.49C103.421 375.862 103.442 376.276 103.442 376.731V383.243C103.442 383.532 103.4 383.801 103.318 384.049C103.235 384.276 103.028 384.493 102.698 384.7C102.077 385.072 101.406 385.362 100.682 385.568C99.9584 385.775 99.2452 385.93 98.5423 386.033C97.8601 386.157 97.2193 386.23 96.6197 386.251C96.0202 386.292 95.5447 386.313 95.1933 386.313C93.4981 386.313 92.0303 386.064 90.79 385.568C89.5702 385.051 88.5573 384.318 87.751 383.367C86.9654 382.395 86.3763 381.227 85.9835 379.863C85.6114 378.498 85.4253 376.948 85.4253 375.211C85.4253 373.516 85.6424 371.976 86.0765 370.591C86.5106 369.206 87.1515 368.027 87.9991 367.056C88.8674 366.063 89.9217 365.298 91.1621 364.761C92.4231 364.223 93.8599 363.955 95.4724 363.955C96.5474 363.955 97.612 364.048 98.6664 364.234C99.7207 364.399 100.734 364.751 101.705 365.288C101.933 365.412 102.067 365.536 102.108 365.66C102.15 365.784 102.088 366.022 101.922 366.373L100.961 368.575C100.858 368.865 100.744 369.04 100.62 369.102C100.517 369.164 100.32 369.144 100.031 369.04C99.2866 368.771 98.563 368.575 97.8601 368.451C97.1779 368.327 96.444 368.265 95.6584 368.265C94.7488 368.265 93.9633 368.441 93.3017 368.792C92.6402 369.144 92.0924 369.629 91.6582 370.25C91.2241 370.87 90.9037 371.604 90.6969 372.451C90.4902 373.299 90.3868 374.229 90.3868 375.242C90.3868 376.276 90.4695 377.216 90.6349 378.064C90.8003 378.891 91.0794 379.604 91.4722 380.204C91.8856 380.783 92.4231 381.237 93.0847 381.568C93.7669 381.899 94.6145 382.064 95.6274 382.064ZM126.001 382.064C126.394 382.064 126.89 382.044 127.489 382.002C128.089 381.94 128.668 381.806 129.226 381.599L129.257 377.01C128.533 376.968 127.81 377.01 127.086 377.134C126.363 377.258 125.66 377.464 124.978 377.754C124.688 377.857 124.482 377.909 124.358 377.909C124.254 377.909 124.151 377.795 124.047 377.568L123.241 375.056C123.179 374.891 123.158 374.746 123.179 374.622C123.2 374.498 123.324 374.384 123.551 374.281C124.275 373.929 125.122 373.64 126.094 373.413C127.086 373.165 128.079 373.04 129.071 373.04C129.608 373.04 130.105 373.061 130.559 373.102C131.014 373.123 131.417 373.175 131.769 373.258C132.224 373.361 132.585 373.516 132.854 373.723C133.123 373.909 133.33 374.157 133.474 374.467C133.619 374.756 133.712 375.097 133.753 375.49C133.795 375.862 133.815 376.276 133.815 376.731V383.243C133.815 383.532 133.774 383.801 133.691 384.049C133.609 384.276 133.402 384.493 133.071 384.7C132.451 385.072 131.779 385.362 131.056 385.568C130.332 385.775 129.619 385.93 128.916 386.033C128.234 386.157 127.593 386.23 126.993 386.251C126.394 386.292 125.918 386.313 125.567 386.313C123.872 386.313 122.404 386.064 121.164 385.568C119.944 385.051 118.931 384.318 118.125 383.367C117.339 382.395 116.75 381.227 116.357 379.863C115.985 378.498 115.799 376.948 115.799 375.211C115.799 373.516 116.016 371.976 116.45 370.591C116.884 369.206 117.525 368.027 118.373 367.056C119.241 366.063 120.295 365.298 121.536 364.761C122.797 364.223 124.233 363.955 125.846 363.955C126.921 363.955 127.986 364.048 129.04 364.234C130.094 364.399 131.107 364.751 132.079 365.288C132.306 365.412 132.441 365.536 132.482 365.66C132.523 365.784 132.461 366.022 132.296 366.373L131.335 368.575C131.231 368.865 131.118 369.04 130.994 369.102C130.89 369.164 130.694 369.144 130.404 369.04C129.66 368.771 128.937 368.575 128.234 368.451C127.552 368.327 126.818 368.265 126.032 368.265C125.122 368.265 124.337 368.441 123.675 368.792C123.014 369.144 122.466 369.629 122.032 370.25C121.598 370.87 121.277 371.604 121.071 372.451C120.864 373.299 120.76 374.229 120.76 375.242C120.76 376.276 120.843 377.216 121.008 378.064C121.174 378.891 121.453 379.604 121.846 380.204C122.259 380.783 122.797 381.237 123.458 381.568C124.14 381.899 124.988 382.064 126.001 382.064ZM143.037 385.32C143.037 385.589 142.985 385.765 142.882 385.847C142.799 385.93 142.603 385.971 142.293 385.971H139.006C138.758 385.971 138.572 385.93 138.448 385.847C138.344 385.744 138.293 385.568 138.293 385.32V364.916C138.293 364.668 138.344 364.503 138.448 364.42C138.572 364.316 138.758 364.265 139.006 364.265H142.293C142.603 364.265 142.799 364.306 142.882 364.389C142.985 364.471 143.037 364.647 143.037 364.916V385.32ZM159.444 381.444H152.343L151.134 385.382C151.072 385.589 150.979 385.744 150.855 385.847C150.751 385.93 150.555 385.971 150.265 385.971H146.637C146.41 385.971 146.265 385.909 146.203 385.785C146.162 385.661 146.162 385.517 146.203 385.351L152.653 365.908C152.757 365.557 152.87 365.278 152.994 365.071C153.139 364.844 153.294 364.668 153.459 364.544C153.646 364.42 153.852 364.337 154.08 364.296C154.328 364.234 154.607 364.203 154.917 364.203H156.777C157.129 364.203 157.429 364.223 157.677 364.265C157.925 364.285 158.142 364.358 158.328 364.482C158.514 364.606 158.669 364.782 158.793 365.009C158.938 365.236 159.072 365.536 159.196 365.908L165.646 385.351C165.688 385.475 165.688 385.61 165.646 385.754C165.605 385.899 165.47 385.971 165.243 385.971H161.553C161.326 385.971 161.129 385.951 160.964 385.909C160.819 385.847 160.716 385.703 160.654 385.475L159.444 381.444ZM158.7 356.947C158.824 356.843 158.938 356.771 159.041 356.729C159.145 356.688 159.279 356.75 159.444 356.916L161.584 359.365C161.708 359.489 161.76 359.613 161.739 359.737C161.718 359.841 161.646 359.913 161.522 359.954L155.537 363.024C155.33 363.128 155.175 363.169 155.072 363.148C154.989 363.107 154.896 363.035 154.793 362.931L153.615 361.505C153.511 361.381 153.449 361.278 153.428 361.195C153.428 361.112 153.511 360.998 153.677 360.854L158.7 356.947ZM153.459 377.599H158.328L157.15 373.661L156.002 369.226H155.816L154.638 373.661L153.459 377.599ZM192.45 367.676C192.45 368.089 192.244 368.296 191.83 368.296H186.217V385.32C186.217 385.589 186.166 385.765 186.062 385.847C185.98 385.93 185.783 385.971 185.473 385.971H182.155C181.907 385.971 181.721 385.93 181.597 385.847C181.494 385.744 181.442 385.568 181.442 385.32V368.296H175.953C175.56 368.296 175.364 368.089 175.364 367.676V364.916C175.364 364.647 175.405 364.471 175.488 364.389C175.571 364.306 175.726 364.265 175.953 364.265H191.83C192.078 364.265 192.244 364.306 192.326 364.389C192.409 364.471 192.45 364.647 192.45 364.916V367.676ZM208.799 375.8C209.502 376.11 209.998 376.555 210.288 377.134C210.577 377.692 210.815 378.333 211.001 379.056L212.582 385.258C212.624 385.382 212.613 385.537 212.551 385.723C212.51 385.889 212.365 385.971 212.117 385.971H208.861C208.634 385.971 208.396 385.951 208.148 385.909C207.9 385.847 207.724 385.661 207.621 385.351L206.256 379.863C205.988 378.85 205.584 378.147 205.047 377.754C204.53 377.361 203.807 377.165 202.876 377.165H199.868V385.32C199.868 385.61 199.827 385.796 199.744 385.878C199.662 385.94 199.465 385.971 199.155 385.971H195.837C195.589 385.971 195.403 385.93 195.279 385.847C195.176 385.744 195.124 385.568 195.124 385.32V366.125C195.124 365.505 195.248 365.04 195.496 364.73C195.744 364.399 196.24 364.234 196.984 364.234H204.582C206.835 364.234 208.572 364.802 209.791 365.939C211.032 367.076 211.652 368.606 211.652 370.529C211.652 371.583 211.404 372.575 210.908 373.506C210.412 374.436 209.698 375.149 208.768 375.645L208.799 375.8ZM206.815 370.839C206.815 370.57 206.773 370.291 206.69 370.002C206.608 369.712 206.463 369.454 206.256 369.226C206.07 368.978 205.802 368.782 205.45 368.637C205.099 368.472 204.654 368.389 204.117 368.389H199.899V373.351H204.024C204.933 373.351 205.626 373.123 206.101 372.668C206.577 372.193 206.815 371.583 206.815 370.839ZM221.015 385.32C221.015 385.589 220.963 385.765 220.86 385.847C220.777 385.93 220.581 385.971 220.271 385.971H216.984C216.736 385.971 216.55 385.93 216.426 385.847C216.322 385.744 216.271 385.568 216.271 385.32V364.916C216.271 364.668 216.322 364.503 216.426 364.42C216.55 364.316 216.736 364.265 216.984 364.265H220.271C220.581 364.265 220.777 364.306 220.86 364.389C220.963 364.471 221.015 364.647 221.015 364.916V385.32ZM220.705 389.32C220.705 389.899 220.498 390.375 220.085 390.747C219.692 391.14 219.217 391.336 218.658 391.336C218.08 391.336 217.583 391.14 217.17 390.747C216.777 390.375 216.581 389.899 216.581 389.32C216.581 388.762 216.777 388.276 217.17 387.863C217.583 387.47 218.08 387.274 218.658 387.274C219.217 387.274 219.692 387.47 220.085 387.863C220.498 388.276 220.705 388.762 220.705 389.32ZM244.682 382.033C245.674 382.033 246.553 381.92 247.318 381.692C248.083 381.444 248.796 381.196 249.457 380.948C249.747 380.824 249.954 380.803 250.078 380.886C250.202 380.948 250.315 381.093 250.419 381.32L251.473 383.553C251.618 383.842 251.669 384.059 251.628 384.204C251.587 384.349 251.473 384.473 251.287 384.576C250.171 385.258 248.992 385.723 247.752 385.971C246.532 386.199 245.323 386.313 244.124 386.313C242.429 386.313 240.961 386.064 239.72 385.568C238.501 385.051 237.488 384.318 236.682 383.367C235.896 382.416 235.307 381.258 234.914 379.894C234.542 378.508 234.356 376.958 234.356 375.242C234.356 373.547 234.594 372.007 235.069 370.622C235.565 369.237 236.247 368.048 237.116 367.056C237.984 366.063 239.028 365.298 240.248 364.761C241.488 364.223 242.852 363.955 244.341 363.955C245.395 363.955 246.429 364.048 247.442 364.234C248.455 364.399 249.447 364.751 250.419 365.288C250.646 365.412 250.781 365.536 250.822 365.66C250.863 365.784 250.812 366.022 250.667 366.373L249.706 368.513C249.602 368.802 249.488 368.978 249.364 369.04C249.261 369.102 249.065 369.082 248.775 368.978C248.031 368.709 247.338 368.513 246.698 368.389C246.057 368.244 245.344 368.172 244.558 368.172C243.71 368.172 242.956 368.358 242.294 368.73C241.653 369.082 241.106 369.578 240.651 370.219C240.217 370.839 239.886 371.583 239.658 372.451C239.431 373.299 239.317 374.229 239.317 375.242C239.317 376.255 239.4 377.175 239.565 378.002C239.751 378.829 240.051 379.542 240.465 380.142C240.899 380.741 241.457 381.206 242.139 381.537C242.821 381.868 243.669 382.033 244.682 382.033ZM266.252 381.444H259.15L257.941 385.382C257.879 385.589 257.786 385.744 257.662 385.847C257.559 385.93 257.362 385.971 257.073 385.971H253.445C253.217 385.971 253.072 385.909 253.01 385.785C252.969 385.661 252.969 385.517 253.01 385.351L259.46 365.908C259.564 365.557 259.678 365.278 259.802 365.071C259.946 364.844 260.101 364.668 260.267 364.544C260.453 364.42 260.659 364.337 260.887 364.296C261.135 364.234 261.414 364.203 261.724 364.203H263.585C263.936 364.203 264.236 364.223 264.484 364.265C264.732 364.285 264.949 364.358 265.135 364.482C265.321 364.606 265.476 364.782 265.6 365.009C265.745 365.236 265.879 365.536 266.003 365.908L272.453 385.351C272.495 385.475 272.495 385.61 272.453 385.754C272.412 385.899 272.278 385.971 272.05 385.971H268.36C268.133 385.971 267.936 385.951 267.771 385.909C267.626 385.847 267.523 385.703 267.461 385.475L266.252 381.444ZM260.267 377.599H265.135L263.957 373.661L262.809 369.226H262.623L261.445 373.661L260.267 377.599ZM293.827 375.056C293.827 376.834 293.631 378.415 293.238 379.801C292.866 381.186 292.277 382.364 291.471 383.336C290.665 384.307 289.652 385.051 288.432 385.568C287.212 386.064 285.765 386.313 284.09 386.313C280.886 386.313 278.498 385.341 276.927 383.398C275.377 381.454 274.602 378.705 274.602 375.149C274.602 373.413 274.819 371.852 275.253 370.467C275.708 369.061 276.348 367.883 277.175 366.932C278.002 365.96 279.005 365.216 280.183 364.699C281.362 364.182 282.695 363.924 284.184 363.924C285.796 363.924 287.202 364.182 288.401 364.699C289.621 365.216 290.623 365.96 291.409 366.932C292.215 367.883 292.815 369.051 293.207 370.436C293.621 371.8 293.827 373.34 293.827 375.056ZM288.897 375.149C288.897 374.219 288.825 373.33 288.68 372.482C288.556 371.635 288.318 370.89 287.967 370.25C287.615 369.609 287.14 369.102 286.54 368.73C285.941 368.337 285.165 368.141 284.215 368.141C283.429 368.141 282.736 368.327 282.137 368.699C281.558 369.051 281.072 369.536 280.679 370.157C280.287 370.777 279.997 371.5 279.811 372.327C279.625 373.154 279.532 374.033 279.532 374.963C279.532 376.059 279.604 377.041 279.749 377.909C279.915 378.777 280.173 379.521 280.524 380.142C280.897 380.762 281.382 381.237 281.982 381.568C282.581 381.899 283.336 382.064 284.246 382.064C285.134 382.064 285.879 381.878 286.478 381.506C287.078 381.113 287.553 380.607 287.905 379.987C288.256 379.346 288.504 378.612 288.649 377.785C288.814 376.937 288.897 376.059 288.897 375.149Z" fill="black"/>
<path d="M154.641 260.42C156.482 262.865 160.195 262.641 161.874 260.42L239.327 175.752C240.576 174.427 240.921 172.504 240.188 170.881C240.007 170.431 241.595 172.647 213.624 133.803C212.807 132.691 211.515 132.007 210.137 132.007C194.751 131.919 121.771 132.006 106.378 132.007C105 132.007 103.708 132.691 102.89 133.803C75.2139 172.301 76.6535 170.177 76.3696 170.881C75.6369 172.504 75.9386 174.427 77.1442 175.752L154.641 260.42ZM148.011 140.551L122.308 167.934H88.9409L108.616 140.551H148.011ZM207.898 140.551L227.617 167.934H194.207L168.547 140.551H207.898ZM185.209 177.247L158.258 245.17L131.349 177.247H185.209Z" fill="black"/>
<path d="M158.266 122.339C160.644 122.339 162.572 120.429 162.572 118.067V108.577C162.572 106.215 160.644 104.305 158.266 104.305C155.889 104.305 153.961 106.215 153.961 108.577V118.067C153.961 120.429 155.889 122.339 158.266 122.339Z" fill="black"/>
<path d="M124.404 119.665C125.778 121.586 128.473 122.035 130.408 120.668C132.344 119.3 132.796 116.632 131.417 114.711L125.869 106.978C124.492 105.055 121.805 104.605 119.865 105.973C117.929 107.341 117.477 110.009 118.856 111.93L124.404 119.665Z" fill="black"/>
<path d="M192.129 119.665L197.677 111.931C199.056 110.01 198.604 107.342 196.668 105.974C194.725 104.605 192.039 105.054 190.664 106.979L185.116 114.711C183.737 116.632 184.189 119.3 186.125 120.669C188.058 122.034 190.754 121.588 192.129 119.665Z" fill="black"/>
<path d="M146.535 47.6414C153.147 40.9975 163.901 40.9975 170.513 47.6414L286.57 164.259C293.137 170.858 293.137 181.523 286.57 188.122L170.513 304.739C163.901 311.383 153.147 311.383 146.535 304.739L30.4782 188.122C23.9111 181.523 23.9111 170.858 30.4782 164.259L146.535 47.6414Z" stroke="black" stroke-width="8.45714"/>
</svg>
