<svg width="14" height="10" viewBox="0 0 14 10" fill="none" xmlns="http://www.w3.org/2000/svg">
<path d="M11.5151 2.49998H9.69695V0H1.21213C0.542414 0 0 0.559364 0 1.25001V8.125H1.21213C1.21213 9.15939 2.02727 10 3.03031 10C4.03335 10 4.84849 9.15939 4.84849 8.125H8.48485C8.48485 9.15939 9.29999 10 10.303 10C11.3061 10 12.1212 9.15939 12.1212 8.125H13.3333V5L11.5151 2.49998ZM3.03031 9.06247C2.52727 9.06247 2.12122 8.64373 2.12122 8.12497C2.12122 7.60622 2.52727 7.18748 3.03031 7.18748C3.53335 7.18748 3.9394 7.60622 3.9394 8.12497C3.9394 8.64373 3.53332 9.06247 3.03031 9.06247ZM10.303 9.06247C9.79998 9.06247 9.39394 8.64373 9.39394 8.12497C9.39394 7.60622 9.79998 7.18748 10.303 7.18748C10.8061 7.18748 11.2121 7.60622 11.2121 8.12497C11.2121 8.64373 10.806 9.06247 10.303 9.06247ZM9.69695 5V3.43751H11.2121L12.403 5H9.69695Z" fill="black"/>
</svg>
